<?xml version="1.0" encoding="UTF-8"?>
<svg xmlns="http://www.w3.org/2000/svg" viewBox="0 0 384 384" width="384px" height="384px">
<g id="surface38664223">
<path style="fill-rule:nonzero;fill:rgb(100%,83.137256%,70.588237%);fill-opacity:1;stroke-width:12;stroke-linecap:butt;stroke-linejoin:round;stroke:rgb(13.725491%,14.901961%,37.254903%);stroke-opacity:1;stroke-miterlimit:10;" d="M 150.500299 35.833932 C 153.084577 35.796506 155.48921 37.155076 156.791642 39.387549 C 158.094073 41.620021 158.094073 44.380203 156.791642 46.612675 C 155.48921 48.845148 153.084577 50.203718 150.500299 50.166292 L 21.4997 50.166292 C 18.915422 50.203718 16.510789 48.845148 15.208358 46.612675 C 13.905926 44.380203 13.905926 41.620021 15.208358 39.387549 C 16.510789 37.155076 18.915422 35.796506 21.4997 35.833932 Z M 150.500299 78.832884 C 153.084577 78.797329 155.48921 80.154028 156.791642 82.386501 C 158.094073 84.618973 158.094073 87.381026 156.791642 89.613498 C 155.48921 91.845971 153.084577 93.20267 150.500299 93.167115 L 21.4997 93.167115 C 18.915422 93.20267 16.510789 91.845971 15.208358 89.613498 C 13.905926 87.381026 13.905926 84.618973 15.208358 82.386501 C 16.510789 80.154028 18.915422 78.797329 21.4997 78.832884 Z M 150.500299 121.833707 C 153.084577 121.796281 155.48921 123.154852 156.791642 125.387324 C 158.094073 127.619796 158.094073 130.379978 156.791642 132.61245 C 155.48921 134.844923 153.084577 136.203494 150.500299 136.166067 L 21.4997 136.166067 C 18.915422 136.203494 16.510789 134.844923 15.208358 132.61245 C 13.905926 130.379978 13.905926 127.619796 15.208358 125.387324 C 16.510789 123.154852 18.915422 121.796281 21.4997 121.833707 Z M 150.500299 121.833707 " transform="matrix(2.087442,0,0,2.087442,12.48,12.48)"/>
<path style=" stroke:none;fill-rule:nonzero;fill:rgb(13.725491%,14.901961%,37.254903%);fill-opacity:1;" d="M 57.359375 87.28125 C 51.964844 87.203125 46.945312 90.039062 44.226562 94.699219 C 41.507812 99.359375 41.507812 105.121094 44.226562 109.78125 C 46.945312 114.441406 51.964844 117.277344 57.359375 117.199219 L 326.640625 117.199219 C 332.035156 117.277344 337.054688 114.441406 339.773438 109.78125 C 342.492188 105.121094 342.492188 99.359375 339.773438 94.699219 C 337.054688 90.039062 332.035156 87.203125 326.640625 87.28125 Z M 57.359375 177.039062 C 51.964844 176.964844 46.945312 179.796875 44.226562 184.457031 C 41.507812 189.117188 41.507812 194.882812 44.226562 199.542969 C 46.945312 204.203125 51.964844 207.035156 57.359375 206.960938 L 326.640625 206.960938 C 332.035156 207.035156 337.054688 204.203125 339.773438 199.542969 C 342.492188 194.882812 342.492188 189.117188 339.773438 184.457031 C 337.054688 179.796875 332.035156 176.964844 326.640625 177.039062 Z M 57.359375 266.800781 C 51.964844 266.722656 46.945312 269.558594 44.226562 274.21875 C 41.507812 278.878906 41.507812 284.640625 44.226562 289.300781 C 46.945312 293.960938 51.964844 296.796875 57.359375 296.71875 L 326.640625 296.71875 C 332.035156 296.796875 337.054688 293.960938 339.773438 289.300781 C 342.492188 284.640625 342.492188 278.878906 339.773438 274.21875 C 337.054688 269.558594 332.035156 266.722656 326.640625 266.800781 Z M 57.359375 266.800781 "/>
</g>
</svg>
